<svg xmlns="http://www.w3.org/2000/svg" width="56" height="56" fill="none" viewBox="0 0 56 56"><path stroke="#000" stroke-linecap="round" stroke-linejoin="round" stroke-width="2" d="M44.3333 7H11.6667C9.08934 7 7 9.08934 7 11.6667V44.3333C7 46.9107 9.08934 49 11.6667 49H44.3333C46.9107 49 49 46.9107 49 44.3333V11.6667C49 9.08934 46.9107 7 44.3333 7Z"/><path stroke="#000" stroke-linecap="round" stroke-linejoin="round" stroke-width="2" d="M19.8333 23.3333C21.7663 23.3333 23.3333 21.7663 23.3333 19.8333C23.3333 17.9003 21.7663 16.3333 19.8333 16.3333C17.9003 16.3333 16.3333 17.9003 16.3333 19.8333C16.3333 21.7663 17.9003 23.3333 19.8333 23.3333Z"/><path stroke="#000" stroke-linecap="round" stroke-linejoin="round" stroke-width="2" d="M49 35L37.3333 23.3333L11.6667 49"/></svg>